<svg width="22" height="19" viewBox="0 0 22 19" fill="none" xmlns="http://www.w3.org/2000/svg">
<g id="&#229;&#164;&#169;&#230;&#176;&#148;">
<path id="&#229;&#189;&#162;&#231;&#138;&#182;&#231;&#187;&#147;&#229;&#144;&#136;" fill-rule="evenodd" clip-rule="evenodd" d="M5.72442 2.49111C6.03553 2.49111 6.28441 2.24222 6.28441 1.93111V1.06C6.28441 0.748889 6.03553 0.5 5.72442 0.5C5.41331 0.5 5.16442 0.748889 5.16442 1.06V1.93111C5.19553 2.27333 5.41331 2.49111 5.72442 2.49111ZM6.09774 7.25111C6.22218 7.25111 6.34663 7.25111 6.47107 7.28222C6.87551 6.44222 7.62218 5.75778 8.49328 5.41555C8.15106 4.20222 7.03107 3.36222 5.75552 3.36222C4.16886 3.36222 2.89331 4.66889 2.89331 6.22444C2.89331 6.97111 3.17331 7.68666 3.63997 8.18444C4.2933 7.59333 5.16441 7.25111 6.09774 7.25111ZM9.76882 2.95779L9.1466 3.58001C8.92882 3.79779 8.5866 3.79779 8.36882 3.58001C8.15105 3.36223 8.15105 3.02001 8.36882 2.80223L8.99104 2.18001C9.20882 1.96223 9.55104 1.96223 9.76882 2.18001C9.98659 2.39779 9.98659 2.74001 9.76882 2.95779ZM1.46221 5.63335H0.559997C0.248888 5.63335 0 5.88223 0 6.19335C0 6.50446 0.248888 6.75335 0.559997 6.75335H1.4311C1.74221 6.75335 1.9911 6.50446 1.9911 6.19335C2.05332 5.88223 1.77332 5.63335 1.46221 5.63335ZM2.48892 2.18001L3.11114 2.80223C3.32892 3.02001 3.32892 3.36223 3.11114 3.58001C2.89336 3.79779 2.55114 3.79779 2.33337 3.58001L1.71115 2.95779C1.49337 2.74001 1.49337 2.39779 1.71115 2.18001C1.92892 1.96223 2.27114 1.96223 2.48892 2.18001Z" fill="url(#paint0_linear_308_34629)"/>
<g id="&#232;&#183;&#175;&#229;&#190;&#132;" filter="url(#filter0_d_308_34629)">
<path d="M14.2177 7.87329C13.6577 7.87329 13.0977 8.02884 12.6622 8.27773C12.6 8.30884 12.5688 8.30884 12.5066 8.30884C12.4755 8.30884 12.4133 8.30884 12.3822 8.27773C12.2888 8.24662 12.2266 8.15329 12.1955 8.09107C11.8844 7.03329 10.92 6.28662 9.79997 6.28662C8.58664 6.28662 7.6222 7.12662 7.37331 8.24662C7.3422 8.33995 7.31109 8.40218 7.21776 8.4644C7.15554 8.49551 7.12442 8.49551 7.0622 8.49551C7.03109 8.49551 6.99998 8.49551 6.96887 8.4644C6.71998 8.37107 6.43998 8.33995 6.15999 8.33995C4.72888 8.33995 3.60889 9.49107 3.60889 10.86C3.60889 13.6288 5.56888 14.5 7.18665 14.5H14.0622C15.9599 14.5 17.4844 12.9444 17.4844 11.0777C17.391 9.33551 15.991 7.87329 14.2177 7.87329V7.87329Z" fill="white"/>
</g>
</g>
<defs>
<filter id="filter0_d_308_34629" x="-0.391113" y="4.28662" width="21.8755" height="16.2134" filterUnits="userSpaceOnUse" color-interpolation-filters="sRGB">
<feFlood flood-opacity="0" result="BackgroundImageFix"/>
<feColorMatrix in="SourceAlpha" type="matrix" values="0 0 0 0 0 0 0 0 0 0 0 0 0 0 0 0 0 0 127 0" result="hardAlpha"/>
<feOffset dy="2"/>
<feGaussianBlur stdDeviation="2"/>
<feColorMatrix type="matrix" values="0 0 0 0 0 0 0 0 0 0 0 0 0 0 0 0 0 0 0.3 0"/>
<feBlend mode="normal" in2="BackgroundImageFix" result="effect1_dropShadow_308_34629"/>
<feBlend mode="normal" in="SourceGraphic" in2="effect1_dropShadow_308_34629" result="shape"/>
</filter>
<linearGradient id="paint0_linear_308_34629" x1="9.93217" y1="0.5" x2="0" y2="0.5" gradientUnits="userSpaceOnUse">
<stop stop-color="#FFE587"/>
<stop offset="1" stop-color="#FF8D58"/>
</linearGradient>
</defs>
</svg>
